<svg width="48" height="48" viewBox="0 0 48 48" fill="none" xmlns="http://www.w3.org/2000/svg"><path d="M30.514 2.005c8.159.194 14.912 6.233 15.45 13.995h-3.01c-.535-5.972-5.805-10.826-12.49-10.996L30.094 5c-5.387.006-9.96 3.086-11.885 7.373l-.981 2.186-2.35-.474a8.724 8.724 0 0 0-1.29-.161l-.444-.012c-4.592 0-8.13 3.466-8.143 7.522l.012.424c.12 2.154 1.243 4.114 2.977 5.434L6.624 30c-2.5-1.707-4.238-4.372-4.567-7.47l-.042-.525-.015-.55c0-5.906 5.077-10.543 11.143-10.543.797 0 1.576.08 2.329.232C17.9 5.735 23.577 2 30.107 2l.407.005z" fill="#70757A"/><path fill-rule="evenodd" clip-rule="evenodd" d="M32.667 19L26 32.757h6L31.257 45 46 28.962l-5.335-.02L46 19H32.667zm-12 16L18 40.82h2.4L20.103 46 26 39.215l-2.134-.01L26 35h-5.333zM12 26l-4 7.937h3.6L11.154 41 20 31.748l-3.201-.013L20 26h-8z" fill="#DA4F00"/></svg>