<svg width="49" height="49" viewBox="0 0 49 49" fill="none" xmlns="http://www.w3.org/2000/svg"><path d="M30.598 2.86c8.338.2 15.208 6.502 15.476 14.51l-3.125-1.214c-.866-5.647-5.98-10.133-12.4-10.297l-.372-.004c-5.387.006-9.96 3.086-11.885 7.373l-.982 2.186-2.348-.474a8.726 8.726 0 0 0-1.291-.16l-.444-.012c-4.592 0-8.13 3.465-8.143 7.521l.012.425c.217 3.88 3.686 7.138 8.13 7.139h2.145l1.888 3h-4.032c-5.693 0-10.515-4.084-11.086-9.468l-.042-.525-.015-.55c0-5.905 5.077-10.542 11.143-10.542.797 0 1.576.08 2.329.231C17.985 6.59 23.66 2.856 30.19 2.855l.407.005z" fill="#70757A"/><path d="M37.339 37.787l3.045-1.622.246-.132.896 1.432-3.274 1.743 3.274 1.747-.896 1.432-3.291-1.755v3.516h-1.752v-3.517l-3.292 1.756-.15-.238-.746-1.194 3.274-1.747-3.274-1.743.895-1.432.248.132 3.045 1.623v-3.515h1.752v3.514zM26.32 27.4l3.989-2.127.84 1.344.171.273-3.971 2.114 3.971 2.119-1.011 1.615-3.989-2.127v4.261h-1.983v-4.26l-3.988 2.126-.84-1.343-.171-.272 3.969-2.117-3.686-1.965-.283-.151 1.01-1.617.248.132 3.74 1.994v-4.26h1.984v4.26zm14.844-3.71l3.988-2.127.841 1.344.171.273-3.972 2.114 3.972 2.12-1.012 1.614-3.988-2.127v4.261h-1.983v-4.26l-3.989 2.126-.84-1.342-.17-.273 3.968-2.117-3.685-1.965-.283-.151 1.01-1.616.248.131 3.74 1.994v-4.26h1.984v4.26z" fill="#303134"/></svg>