<svg width="48" height="48" viewBox="0 0 48 48" fill="none" xmlns="http://www.w3.org/2000/svg"><path d="M34.243 34.355c2.043 0 3.48.481 4.711 1.05l.517.247.573.288.039.02c1.19.6 2.235 1.122 3.84 1.222l.077.004V40.2l-.086-.003c-2.334-.109-3.838-.872-5.229-1.572-1.34-.676-2.487-1.259-4.442-1.259-1.935 0-3.08.57-4.402 1.237l-.06.03-.002.003c-1.492.762-3.122 1.575-5.779 1.575-2.668 0-4.3-.83-5.802-1.586-1.34-.676-2.486-1.259-4.441-1.259-1.936 0-3.08.57-4.403 1.237l-.06.03-.002.003c-1.38.706-2.882 1.454-5.205 1.561L4 40.2v-3.014l.077-.004c1.605-.1 2.65-.621 3.841-1.222l.039-.02c1.497-.765 3.131-1.584 5.8-1.584 2.335 0 3.878.627 5.227 1.295l.573.289.009.005.003.003.029.014C20.92 36.63 22.064 37.2 24 37.2c1.692 0 2.778-.436 3.912-.994h.002l.49-.246.039-.02c1.498-.765 3.132-1.584 5.8-1.584zm0-8.855c2.043 0 3.48.48 4.711 1.049l.517.247.573.288.039.02c1.19.602 2.235 1.123 3.84 1.222l.077.004v3.015l-.086-.003c-2.334-.109-3.838-.872-5.229-1.573-1.34-.675-2.487-1.258-4.442-1.258-1.935 0-3.08.57-4.402 1.237l-.06.03-.002.002c-1.492.763-3.122 1.575-5.779 1.575-2.668 0-4.3-.83-5.802-1.586-1.34-.675-2.486-1.258-4.441-1.258-1.936 0-3.08.57-4.403 1.237l-.06.03-.002.002c-1.38.706-2.882 1.455-5.205 1.562L4 31.345V28.33l.077-.004c1.605-.1 2.65-.62 3.841-1.221l.039-.02c1.497-.766 3.131-1.585 5.8-1.585 2.335 0 3.878.627 5.227 1.295l.573.29.009.004.003.003.029.015c1.323.667 2.466 1.238 4.402 1.238 1.692 0 2.778-.437 3.912-.994h.002l.49-.246.039-.02c1.498-.766 3.132-1.585 5.8-1.585zm0-8.855c2.043 0 3.48.48 4.711 1.048l.517.248.573.288.039.02c1.19.601 2.235 1.122 3.84 1.222l.077.004v3.014l-.086-.003c-2.334-.108-3.838-.872-5.229-1.572-1.34-.676-2.487-1.259-4.442-1.259-1.935 0-3.08.57-4.402 1.237l-.06.03-.002.003C28.287 21.687 26.657 22.5 24 22.5c-2.668 0-4.3-.83-5.802-1.586-1.34-.676-2.486-1.259-4.441-1.259-1.936 0-3.08.57-4.403 1.237l-.06.03-.002.003c-1.38.706-2.882 1.454-5.205 1.561L4 22.49v-3.014l.077-.004c1.605-.1 2.65-.621 3.841-1.221l.039-.02c1.497-.766 3.131-1.585 5.8-1.585 2.335 0 3.878.627 5.227 1.295l.573.289.009.005.003.003.029.014c1.323.668 2.466 1.238 4.402 1.238 1.692 0 2.778-.436 3.912-.994h.002l.49-.245.039-.02c1.498-.766 3.132-1.585 5.8-1.585zm0-8.855c2.043 0 3.48.48 4.711 1.048l.517.247.573.288.039.021c1.19.6 2.235 1.122 3.84 1.221l.077.004v3.015l-.086-.003c-2.334-.109-3.838-.872-5.229-1.573-1.34-.675-2.487-1.258-4.442-1.258-1.935 0-3.08.57-4.402 1.237l-.06.03-.002.002c-1.492.763-3.122 1.575-5.779 1.575-2.668 0-4.3-.829-5.802-1.586-1.34-.675-2.486-1.258-4.441-1.258-1.936 0-3.08.57-4.403 1.237l-.06.03-.002.002c-1.38.706-2.882 1.455-5.205 1.562L4 13.634v-3.015l.077-.004c1.605-.1 2.65-.62 3.841-1.221l.039-.02c1.497-.766 3.131-1.585 5.8-1.585 2.335 0 3.878.627 5.227 1.295l.573.29.009.004.003.003.029.015c1.323.667 2.466 1.238 4.402 1.238 1.692 0 2.778-.437 3.912-.994h.002l.49-.246.039-.02c1.498-.766 3.132-1.585 5.8-1.585z" fill="#70757A"/></svg>