<svg width="48" height="48" viewBox="0 0 48 48" fill="none" xmlns="http://www.w3.org/2000/svg"><path d="M23.55 3.315a8.246 8.246 0 0 1 10.524 2.612 8.246 8.246 0 0 0 4.235 3.126 8.246 8.246 0 0 1 5.595 9.29 8.244 8.244 0 0 0 .069 3.222c-2.96-2.758-6.962-4.456-11.276-4.56h-.037L32.31 17h-.035c-5.982 0-11.353 3.032-14.32 7.728l-.332-.004c-6.189 0-11.693 4.406-12.517 10.538A8.226 8.226 0 0 1 4.1 29.657a8.247 8.247 0 0 0-.784-5.206 8.246 8.246 0 0 1 2.612-10.524 8.246 8.246 0 0 0 3.127-4.234 8.246 8.246 0 0 1 9.289-5.595 8.246 8.246 0 0 0 5.205-.783z" fill="#FCBD00"/><path d="M23.55 3.315a8.246 8.246 0 0 1 10.524 2.612 8.245 8.245 0 0 0 4.235 3.126 8.246 8.246 0 0 1 5.595 9.29 8.25 8.25 0 0 0 .069 3.223 16.827 16.827 0 0 0-3.183-2.331c.023-.473.076-.946.16-1.416a5.246 5.246 0 0 0-3.56-5.91 11.249 11.249 0 0 1-5.774-4.264 5.246 5.246 0 0 0-6.696-1.661 11.247 11.247 0 0 1-7.098 1.068 5.246 5.246 0 0 0-5.91 3.56 11.247 11.247 0 0 1-4.264 5.774 5.246 5.246 0 0 0-1.661 6.695 11.248 11.248 0 0 1 1.068 7.099l-.007.041a11.661 11.661 0 0 0-1.942 5.041A8.226 8.226 0 0 1 4.1 29.657a8.246 8.246 0 0 0-.636-4.902l-.147-.304a8.246 8.246 0 0 1 2.301-10.296l.311-.228a8.247 8.247 0 0 0 3.126-4.234 8.246 8.246 0 0 1 9.289-5.595 8.246 8.246 0 0 0 4.901-.636l.304-.147z" fill="#DA4F00"/><path d="M32.59 21.503c6.62.16 11.91 5.258 11.91 11.496l-.007.378c-.126 3.684-2.098 6.937-5.08 8.957a12.552 12.552 0 0 1-4.373 1.864c-2.867.347-5.707.3-8.754.3h-8.663c-4.22-.001-7.676-3.027-8.083-6.867l-.03-.374-.01-.397c0-4.202 3.623-7.636 8.123-7.636.588 0 1.162.059 1.714.17l1.177.239.49-1.096c1.848-4.128 6.198-7.034 11.264-7.037l.322.003z" stroke="#70757A" stroke-width="3"/></svg>