<svg width="48" height="48" viewBox="0 0 48 48" fill="none" xmlns="http://www.w3.org/2000/svg"><g clip-path="url(#a)"><path d="M15.865 3.573c2.388-2.096 5.973-2.094 8.373-.012a6.297 6.297 0 0 0 3.835 1.532 6.273 6.273 0 0 1 5.986 5.985 6.296 6.296 0 0 0 1.532 3.835 6.375 6.375 0 0 1 1.556 3.976 17.28 17.28 0 0 0-7.45-1.884l-.02-.001h-.019l-.35-.004h-.034c-5.981 0-11.352 3.03-14.319 7.727l-.332-.003c-3.67 0-7.096 1.551-9.451 4.09a6.318 6.318 0 0 1-.08-.74 6.297 6.297 0 0 0-1.531-3.836c-2.082-2.4-2.084-5.985.012-8.373l.243-.277a6.804 6.804 0 0 0 1.658-3.866 6.924 6.924 0 0 1 6.248-6.248 6.803 6.803 0 0 0 3.866-1.658l.277-.243z" fill="#FCBD00"/><path d="M15.865 3.573c2.388-2.096 5.973-2.094 8.373-.012a6.297 6.297 0 0 0 3.835 1.532 6.274 6.274 0 0 1 5.986 5.986 6.296 6.296 0 0 0 1.532 3.834 6.375 6.375 0 0 1 1.556 3.976 17.218 17.218 0 0 0-3.347-1.29 3.376 3.376 0 0 0-.476-.72 9.296 9.296 0 0 1-2.262-5.666 3.273 3.273 0 0 0-3.123-3.123 9.297 9.297 0 0 1-5.666-2.263 3.377 3.377 0 0 0-4.428 0l-.277.243a9.804 9.804 0 0 1-5.574 2.392 3.923 3.923 0 0 0-3.532 3.532 9.804 9.804 0 0 1-2.392 5.573l-.243.278a3.376 3.376 0 0 0 0 4.428 9.303 9.303 0 0 1 2.098 4.31 12.631 12.631 0 0 0-2.753 2.232 6.296 6.296 0 0 1-.058-.44l-.021-.302a6.295 6.295 0 0 0-1.363-3.631l-.17-.204c-2.016-2.325-2.081-5.762-.177-8.145l.19-.228.244-.277a6.803 6.803 0 0 0 1.627-3.6l.03-.266a6.924 6.924 0 0 1 5.94-6.213l.308-.034a6.809 6.809 0 0 0 3.66-1.486l.206-.173.277-.243z" fill="#DA4F00"/><path d="M29.589 21.503c6.62.16 11.91 5.257 11.911 11.496l-.007.378c-.007.203-.02.41-.04.62l-.083.91.773.491c1.456.926 2.357 2.439 2.357 4.102 0 2.659-2.356 5-5.5 5H19.5v-.003h-4.877c-4.22 0-7.675-3.026-8.083-6.866l-.03-.374-.01-.397c0-4.07 3.4-7.421 7.704-7.627l.419-.01c.587 0 1.161.06 1.714.172l1.177.238.49-1.096c1.848-4.128 6.198-7.034 11.264-7.037l.32.003z" stroke="#70757A" stroke-width="3"/></g><defs><clipPath id="a"><path fill="#fff" d="M0 0h48v48H0z"/></clipPath></defs></svg>