<svg width="48" height="48" viewBox="0 0 48 48" fill="none" xmlns="http://www.w3.org/2000/svg"><path d="M30.514 2.005C39.02 2.208 46 8.762 46 16.999l-.008.473-.022.454a14.183 14.183 0 0 1-.54 3.061l-2.535-2.465a11.1 11.1 0 0 0 .097-1.115l.007-.436c-.016-6.409-5.492-11.788-12.534-11.967L30.093 5c-5.387.006-9.96 3.086-11.885 7.373l-.981 2.186-2.35-.474a8.724 8.724 0 0 0-1.29-.161l-.444-.012c-4.592 0-8.13 3.466-8.143 7.522l.012.424c.217 3.88 3.686 7.139 8.13 7.14h2.045a8.45 8.45 0 0 0 .986 3h-3.03c-5.693-.001-10.515-4.084-11.086-9.469l-.042-.524-.015-.55c0-5.906 5.077-10.543 11.143-10.543.797 0 1.576.08 2.329.232C17.9 5.735 23.577 2 30.107 2l.407.005z" fill="#70757A"/><path d="M35.527 36.433l.036.034a5.478 5.478 0 0 1 0 7.898c-2.242 2.18-5.876 2.18-8.117 0a5.479 5.479 0 0 1 0-7.898l4.058-3.948 4.023 3.914zm-7.652-12.518l.035.034a5.479 5.479 0 0 1 0 7.897c-2.24 2.18-5.875 2.18-8.116 0a5.479 5.479 0 0 1 0-7.897L23.852 20l4.023 3.915zm16.261-.001l.035.035a5.478 5.478 0 0 1 0 7.897c-2.24 2.18-5.874 2.18-8.115 0a5.479 5.479 0 0 1-.001-7.897L40.113 20l4.023 3.914z" fill="#0B57D0"/></svg>