<svg width="48" height="48" viewBox="0 0 48 48" fill="none" xmlns="http://www.w3.org/2000/svg"><path d="M19.566 5.163a6.746 6.746 0 0 1 8.872 0 9.746 9.746 0 0 0 5.747 2.38 6.747 6.747 0 0 1 6.273 6.274 9.746 9.746 0 0 0 2.38 5.747 6.746 6.746 0 0 1 0 8.871 9.746 9.746 0 0 0-2.38 5.747 6.747 6.747 0 0 1-6.273 6.274 9.746 9.746 0 0 0-5.748 2.38 6.746 6.746 0 0 1-8.87 0 9.746 9.746 0 0 0-5.748-2.38 6.747 6.747 0 0 1-6.273-6.274 9.746 9.746 0 0 0-2.381-5.747 6.746 6.746 0 0 1 0-8.871 9.746 9.746 0 0 0 2.38-5.747 6.747 6.747 0 0 1 6.274-6.274 9.746 9.746 0 0 0 5.747-2.38z" fill="#FCBD00" stroke="#DA4F00" stroke-width="3"/></svg>