<svg width="49" height="49" viewBox="0 0 49 49" fill="none" xmlns="http://www.w3.org/2000/svg"><path d="M30.598 2.86c8.338.2 15.208 6.502 15.476 14.51l-3.126-1.215c-.866-5.646-5.979-10.132-12.4-10.296l-.371-.004c-5.387.006-9.96 3.086-11.885 7.373l-.982 2.186-2.348-.474a8.726 8.726 0 0 0-1.291-.16l-.444-.012c-4.592 0-8.13 3.465-8.143 7.521l.012.425c.027.49.107.972.234 1.437h-.077l-1.887 3.076a10.033 10.033 0 0 1-1.225-3.842l-.042-.525-.015-.55c0-5.905 5.077-10.542 11.143-10.542.797 0 1.576.08 2.329.231C17.985 6.59 23.66 2.856 30.19 2.855l.407.005z" fill="#70757A"/><path d="M23.42 40.57l3.045-1.622.246-.132.896 1.432-3.274 1.743 3.274 1.747-.896 1.432-3.291-1.755v3.518h-1.753v-3.518l-3.044 1.623-.248.132-.895-1.432 3.273-1.747-3.273-1.743.895-1.432 3.292 1.754v-3.514h1.753v3.514zm13.917-2.783l3.045-1.622.246-.132.896 1.432-3.274 1.743 3.274 1.747-.896 1.432-3.291-1.755v3.516h-1.752v-3.517l-3.292 1.756-.15-.238-.745-1.194 3.273-1.747-3.273-1.743.894-1.432.248.132 3.045 1.623v-3.515h1.752v3.514zm-25.86-6.677l3.988-2.126.84 1.344.172.273-.284.151-3.686 1.965 3.97 2.117-.171.272-.841 1.344-3.988-2.127v4.26H9.493v-4.26l-3.741 1.995-.248.132-1.01-1.616 3.969-2.117-3.686-1.965-.283-.151 1.01-1.617.248.132 3.741 1.994v-4.26h1.984v4.26zm14.841-3.71l3.989-2.127.84 1.344.171.273-3.971 2.114 3.971 2.119-1.011 1.615-3.989-2.127v4.261h-1.983v-4.26l-3.988 2.126-.84-1.343-.171-.272 3.969-2.117-3.686-1.965-.283-.151 1.01-1.617.248.132 3.741 1.994v-4.26h1.983v4.26zm14.844-3.71l3.988-2.127.841 1.344.171.273-3.972 2.114 3.972 2.12-1.012 1.614-3.988-2.127v4.261H39.18v-4.26l-3.989 2.126-.84-1.342-.17-.273 3.968-2.117-3.685-1.965-.283-.151 1.01-1.616.248.131 3.74 1.994v-4.26h1.984v4.26z" fill="#303134"/></svg>