<svg width="48" height="48" viewBox="0 0 48 48" fill="none" xmlns="http://www.w3.org/2000/svg"><path d="M16.689 2c-2.077 2.482-3.319 5.631-3.319 9.058 0 4.015 1.705 7.649 4.46 10.275a16.159 16.159 0 0 0-2.875 3.394l-.332-.003c-2.825 0-5.505.92-7.664 2.5C3.913 24.573 2 20.749 2 16.497 2 8.637 8.534 2.238 16.689 2z" fill="#3271EA"/><path d="M29.589 21.503c6.62.16 11.91 5.257 11.911 11.496l-.007.378c-.007.203-.02.41-.04.62l-.083.91.773.491c1.456.926 2.357 2.439 2.357 4.102 0 2.659-2.356 5-5.5 5H19.5v-.003h-4.877c-4.22 0-7.675-3.026-8.083-6.866l-.03-.374-.01-.397c0-4.07 3.4-7.421 7.704-7.627l.419-.01c.587 0 1.161.06 1.714.172l1.177.238.49-1.096c1.848-4.128 6.198-7.034 11.264-7.037l.32.003z" stroke="#70757A" stroke-width="3"/></svg>