<svg width="48" height="48" viewBox="0 0 48 48" fill="none" xmlns="http://www.w3.org/2000/svg"><g clip-path="url(#a)"><path d="M11.287 3.14a4.619 4.619 0 0 1 6.074 0 4.62 4.62 0 0 0 2.724 1.127c.223.015.442.047.655.092-2.789 1.943-4.986 4.653-6.255 7.831a12.567 12.567 0 0 0-3.058-.377 12.42 12.42 0 0 0-9.173 4.02 4.619 4.619 0 0 1 .885-4.546 4.62 4.62 0 0 0 1.128-2.725 4.62 4.62 0 0 1 4.295-4.295 4.62 4.62 0 0 0 2.725-1.128z" fill="#FCBD00"/><path d="M11.286 3.138a4.62 4.62 0 0 1 6.075 0 4.62 4.62 0 0 0 2.724 1.13c.223.014.441.046.654.091a17.75 17.75 0 0 0-2.863 2.487A7.62 7.62 0 0 1 15.388 5.4a1.62 1.62 0 0 0-2.13 0 7.62 7.62 0 0 1-4.492 1.86 1.619 1.619 0 0 0-1.504 1.505A7.62 7.62 0 0 1 5.4 13.258c-.05.057-.093.117-.134.178a12.323 12.323 0 0 0-3.011 2.399 4.62 4.62 0 0 1 .884-4.55 4.619 4.619 0 0 0 1.113-2.534l.016-.189a4.62 4.62 0 0 1 4.08-4.275l.215-.02a4.619 4.619 0 0 0 2.724-1.129z" fill="#DA4F00"/><path d="M31.457 4.005c7.082.174 12.938 5.14 14.262 11.683h-3.08c-1.27-4.855-5.755-8.55-11.255-8.684L31.072 7c-5.96 0-10.813 4.192-11.758 9.556l-.756 4.287-3.737-2.232a6.595 6.595 0 0 0-3.393-.927c-1.793 0-3.382.692-4.532 1.792h-.001l-4.886 4.722L2 23.842c0-5.058 4.22-9.158 9.428-9.158l.338.005a9.582 9.582 0 0 1 4.593 1.346C17.564 9.201 23.693 4 31.072 4l.385.005z" fill="#70757A"/><path d="M21.796 36.153l.035.033a5.479 5.479 0 0 1 0 7.898c-2.241 2.18-5.875 2.18-8.116 0a5.479 5.479 0 0 1 0-7.898l4.058-3.948 4.023 3.915zm-8.609-10.594l.036.035a5.479 5.479 0 0 1 0 7.897c-2.242 2.18-5.875 2.18-8.116 0a5.479 5.479 0 0 1 0-7.897l4.057-3.949 4.023 3.914z" fill="#0B57D0"/><path fill-rule="evenodd" clip-rule="evenodd" d="M33.06 18.72l-6.667 13.756h6l-.744 12.243 14.744-16.037-5.335-.022 5.335-9.94H33.059z" fill="#DA4F00"/></g><defs><clipPath id="a"><path fill="#fff" d="M0 0h48v48H0z"/></clipPath></defs></svg>