<svg width="48" height="48" viewBox="0 0 48 48" fill="none" xmlns="http://www.w3.org/2000/svg"><g clip-path="url(#a)"><path d="M13.969 2a11.743 11.743 0 0 0-2.474 9.815l-.067-.002c-3.67 0-7 1.588-9.267 4.123A11.753 11.753 0 0 1 2 13.998C2 7.493 7.324 2.197 13.969 2z" fill="#3271EA"/><path d="M31.457 4.005c7.082.174 12.938 5.14 14.262 11.683h-3.08c-1.27-4.855-5.755-8.55-11.255-8.684L31.072 7c-5.96 0-10.813 4.192-11.758 9.556l-.756 4.287-3.737-2.232a6.595 6.595 0 0 0-3.393-.927c-1.793 0-3.382.692-4.532 1.792h-.001l-4.886 4.722L2 23.842c0-5.058 4.22-9.158 9.428-9.158l.338.005a9.582 9.582 0 0 1 4.593 1.346C17.564 9.201 23.693 4 31.072 4l.385.005z" fill="#70757A"/><path d="M21.796 36.153l.035.033a5.479 5.479 0 0 1 0 7.898c-2.241 2.18-5.875 2.18-8.116 0a5.479 5.479 0 0 1 0-7.898l4.058-3.948 4.023 3.915zm-8.609-10.594l.036.035a5.479 5.479 0 0 1 0 7.897c-2.242 2.18-5.875 2.18-8.116 0a5.479 5.479 0 0 1 0-7.897l4.057-3.949 4.023 3.914z" fill="#0B57D0"/><path fill-rule="evenodd" clip-rule="evenodd" d="M33.06 18.72l-6.667 13.756h6l-.744 12.243 14.744-16.037-5.335-.022 5.335-9.94H33.059z" fill="#DA4F00"/></g><defs><clipPath id="a"><path fill="#fff" d="M0 0h48v48H0z"/></clipPath></defs></svg>