<svg width="49" height="50" viewBox="0 0 49 50" fill="none" xmlns="http://www.w3.org/2000/svg"><path d="M11.287 3.14a4.619 4.619 0 0 1 6.074 0 4.62 4.62 0 0 0 2.724 1.127c.223.015.442.047.655.092-2.789 1.943-4.986 4.653-6.255 7.831a12.567 12.567 0 0 0-3.058-.377 12.42 12.42 0 0 0-9.173 4.02 4.619 4.619 0 0 1 .885-4.546 4.62 4.62 0 0 0 1.128-2.725 4.62 4.62 0 0 1 4.295-4.295 4.62 4.62 0 0 0 2.725-1.128z" fill="#FCBD00"/><path d="M11.286 3.138a4.62 4.62 0 0 1 6.075 0 4.62 4.62 0 0 0 2.724 1.13c.223.014.441.046.654.091a17.75 17.75 0 0 0-2.863 2.487A7.62 7.62 0 0 1 15.388 5.4a1.62 1.62 0 0 0-2.13 0 7.62 7.62 0 0 1-4.492 1.86 1.619 1.619 0 0 0-1.504 1.505A7.62 7.62 0 0 1 5.4 13.258c-.05.057-.093.117-.134.178a12.323 12.323 0 0 0-3.011 2.399 4.62 4.62 0 0 1 .884-4.55 4.619 4.619 0 0 0 1.113-2.534l.016-.189a4.62 4.62 0 0 1 4.08-4.275l.215-.02a4.619 4.619 0 0 0 2.724-1.129z" fill="#DA4F00"/><path d="M31.457 4.005C39.524 4.203 46 10.617 46 18.5c0 .946-.094 1.87-.273 2.766l-2.729-2.656.002-.11c0-6.171-5.094-11.336-11.616-11.496L31.072 7c-5.96 0-10.813 4.192-11.758 9.556l-.756 4.287-3.737-2.232a6.595 6.595 0 0 0-3.393-.927c-3.52 0-6.253 2.664-6.42 5.848l-.008.31c0 3.318 2.795 6.157 6.428 6.157h4.186a8.449 8.449 0 0 0 1.308 3h-5.494c-5.044 0-9.163-3.848-9.415-8.687L2 23.843c0-5.058 4.22-9.158 9.428-9.158l.338.005a9.582 9.582 0 0 1 4.593 1.346C17.564 9.201 23.693 4 31.072 4l.385.005z" fill="#70757A"/><path d="M35.828 36.715l.035.033a5.478 5.478 0 0 1 0 7.898c-2.24 2.18-5.875 2.18-8.116 0a5.479 5.479 0 0 1 0-7.898l4.058-3.948 4.023 3.915zm-7.652-12.519l.035.034a5.478 5.478 0 0 1 0 7.897c-2.241 2.181-5.875 2.181-8.116 0a5.479 5.479 0 0 1 0-7.897l4.058-3.949 4.023 3.915zm16.261-.001l.035.035a5.478 5.478 0 0 1 0 7.897c-2.241 2.18-5.874 2.18-8.115 0a5.479 5.479 0 0 1-.001-7.897l4.057-3.949 4.024 3.914z" fill="#0B57D0"/></svg>