<svg width="48" height="48" viewBox="0 0 48 48" fill="none" xmlns="http://www.w3.org/2000/svg"><g clip-path="url(#a)"><path d="M13.969 2a11.743 11.743 0 0 0-2.5 9.684h-.041a12.552 12.552 0 0 0-9.293 4.088A11.763 11.763 0 0 1 2 13.996C2 7.493 7.324 2.197 13.969 2z" fill="#3271EA"/><path d="M31.457 4.005c7.285.18 13.269 5.427 14.361 12.248l-3.407-1.309c-1.515-4.483-5.813-7.812-11.027-7.94L31.072 7c-5.96 0-10.813 4.192-11.758 9.556l-.756 4.287-3.737-2.232a6.595 6.595 0 0 0-3.393-.927c-3.52 0-6.253 2.664-6.42 5.848l-.008.31c0 3.318 2.795 6.157 6.428 6.157h4.665l1.887 3h-6.552c-5.044 0-9.163-3.848-9.415-8.687L2 23.843c0-5.058 4.22-9.158 9.428-9.158l.338.005a9.582 9.582 0 0 1 4.593 1.346C17.564 9.201 23.693 4 31.072 4l.385.005z" fill="#70757A"/><path d="M37.339 36.787l3.045-1.622.246-.132.896 1.432-3.274 1.743 3.274 1.747-.896 1.432-3.291-1.755v3.516h-1.752v-3.517l-3.292 1.756-.15-.238-.746-1.194 3.274-1.747-3.274-1.743.895-1.432.248.132 3.045 1.623v-3.515h1.752v3.514zM26.32 26.4l3.989-2.127.84 1.344.171.273-3.971 2.114 3.971 2.119-1.011 1.615-3.989-2.127v4.261h-1.983v-4.26l-3.988 2.126-.84-1.343-.171-.272 3.969-2.117-3.686-1.965-.283-.151 1.01-1.617.248.132 3.74 1.994v-4.26h1.984v4.26zm14.844-3.71l3.988-2.127.841 1.344.171.273-3.972 2.114 3.972 2.12-1.012 1.614-3.988-2.127v4.261h-1.983v-4.26l-3.989 2.126-.84-1.342-.17-.273 3.968-2.117-3.685-1.965-.283-.151 1.01-1.616.248.131 3.74 1.994v-4.26h1.984v4.26z" fill="#303134"/></g><defs><clipPath id="a"><path fill="#fff" d="M0 0h48v48H0z"/></clipPath></defs></svg>