<svg width="48" height="48" viewBox="0 0 48 48" fill="none" xmlns="http://www.w3.org/2000/svg"><path d="M35.707 36.433l.035.034a5.479 5.479 0 0 1 0 7.898c-2.24 2.18-5.875 2.18-8.116 0a5.479 5.479 0 0 1 0-7.898l4.058-3.948 4.023 3.914z" fill="#0B57D0"/><path d="M30.1 3.5l.396.004c7.655.191 13.808 5.983 14 13.152L44.5 17l-.008.44c-.148 4.33-2.474 8.15-5.984 10.521a14.802 14.802 0 0 1-5.15 2.188c-3.345.404-6.656.35-10.184.35H13.143c-5.002-.001-9.11-3.575-9.595-8.13l-.035-.444-.013-.469c0-4.83 4.045-8.788 9.146-9.031l.497-.012c.697 0 1.377.07 2.032.202l1.175.237.49-1.092c2.177-4.85 7.3-8.257 13.26-8.26z" stroke="#70757A" stroke-width="3"/></svg>