<svg width="48" height="48" viewBox="0 0 48 48" fill="none" xmlns="http://www.w3.org/2000/svg"><path d="M12.049 29.535a5.881 5.881 0 0 1 5.875 5.876 5.88 5.88 0 0 1-5.875 5.875h-1.53v-3.058h1.53a2.824 2.824 0 0 0 2.817-2.817 2.823 2.823 0 0 0-2.817-2.817H4v-3.059h8.049zm26.075-7.064A5.882 5.882 0 0 1 44 28.347a5.882 5.882 0 0 1-5.876 5.875h-1.529v-3.058h1.53a2.824 2.824 0 0 0 2.816-2.817 2.823 2.823 0 0 0-2.817-2.816H4v-3.06h34.124zM21.827 6.716a5.88 5.88 0 0 1 5.875 5.875 5.88 5.88 0 0 1-5.875 5.876H4v-3.059h17.827a2.824 2.824 0 0 0 2.817-2.816 2.823 2.823 0 0 0-2.817-2.817h-1.529v-3.06h1.53z" fill="#70757A"/><path d="M28.788 28.991v4.715l.15-.087 3.922-2.275.986 1.716-4.073 2.35 4.073 2.351-.987 1.717-3.92-2.263-.151-.088v4.703h-1.973v-4.703l-.15.088-3.933 2.263-.976-1.717 4.074-2.35-4.074-2.35.986-1.717 3.923 2.264.15.086v-4.703h1.973zM38.903 6.172v4.715l.15-.087 3.922-2.275.987 1.716-4.073 2.35 4.073 2.351-.988 1.717-3.92-2.263-.15-.088v4.703H36.93v-4.703l-.15.088-3.932 2.263-.977-1.717 4.074-2.35-4.074-2.35.987-1.717 3.922 2.264.15.086V6.172h1.973z" fill="#303134"/></svg>