<svg width="49" height="50" viewBox="0 0 49 50" fill="none" xmlns="http://www.w3.org/2000/svg"><path d="M13.969 2a11.743 11.743 0 0 0-2.5 9.684h-.041a12.552 12.552 0 0 0-9.293 4.088A11.763 11.763 0 0 1 2 13.996C2 7.493 7.324 2.197 13.969 2z" fill="#3271EA"/><path d="M31.457 4.005C39.524 4.203 46 10.617 46 18.5c0 .946-.094 1.87-.273 2.766l-2.729-2.656.002-.11c0-6.171-5.094-11.336-11.616-11.496L31.072 7c-5.96 0-10.813 4.192-11.758 9.556l-.756 4.287-3.737-2.232a6.595 6.595 0 0 0-3.393-.927c-3.52 0-6.253 2.664-6.42 5.848l-.008.31c0 3.318 2.795 6.157 6.428 6.157h4.186a8.449 8.449 0 0 0 1.308 3h-5.494c-5.044 0-9.163-3.848-9.415-8.687L2 23.843c0-5.058 4.22-9.158 9.428-9.158l.338.005a9.582 9.582 0 0 1 4.593 1.346C17.564 9.201 23.693 4 31.072 4l.385.005z" fill="#70757A"/><path d="M35.828 36.715l.035.033a5.478 5.478 0 0 1 0 7.898c-2.24 2.18-5.875 2.18-8.116 0a5.479 5.479 0 0 1 0-7.898l4.058-3.948 4.023 3.915zm-7.652-12.519l.035.034a5.478 5.478 0 0 1 0 7.897c-2.241 2.181-5.875 2.181-8.116 0a5.479 5.479 0 0 1 0-7.897l4.058-3.949 4.023 3.915zm16.261-.001l.035.035a5.478 5.478 0 0 1 0 7.897c-2.241 2.18-5.874 2.18-8.115 0a5.479 5.479 0 0 1-.001-7.897l4.057-3.949 4.024 3.914z" fill="#0B57D0"/></svg>